<mxfile host="app.diagrams.net" modified="2024-05-08T17:49:17.661Z" agent="Mozilla/5.0 (Windows NT 10.0; Win64; x64) AppleWebKit/537.36 (KHTML, like Gecko) Chrome/124.0.0.0 Safari/537.36" etag="6bDyVEHzMbdPJXpUfKjU" version="24.3.1" type="device">
  <diagram name="1 oldal" id="3yaUBCSGOGVVXzowlbsu">
    <mxGraphModel dx="2364" dy="622" grid="1" gridSize="10" guides="1" tooltips="1" connect="1" arrows="1" fold="1" page="1" pageScale="1" pageWidth="1169" pageHeight="1654" math="0" shadow="0">
      <root>
        <mxCell id="0" />
        <mxCell id="1" parent="0" />
        <mxCell id="d9idjgLGeZkNx8XCs1Kq-3" value="Felhasznalo" style="rounded=0;whiteSpace=wrap;html=1;" parent="1" vertex="1">
          <mxGeometry x="220" y="170" width="120" height="60" as="geometry" />
        </mxCell>
        <mxCell id="mrpZGqUkOIdRUqxAna4f-37" style="edgeStyle=orthogonalEdgeStyle;rounded=0;orthogonalLoop=1;jettySize=auto;html=1;exitX=0.5;exitY=1;exitDx=0;exitDy=0;entryX=0.5;entryY=0;entryDx=0;entryDy=0;endArrow=none;endFill=0;" edge="1" parent="1" source="d9idjgLGeZkNx8XCs1Kq-4" target="d9idjgLGeZkNx8XCs1Kq-3">
          <mxGeometry relative="1" as="geometry" />
        </mxCell>
        <mxCell id="d9idjgLGeZkNx8XCs1Kq-4" value="nev" style="ellipse;whiteSpace=wrap;html=1;" parent="1" vertex="1">
          <mxGeometry x="155.96" width="120" height="80" as="geometry" />
        </mxCell>
        <mxCell id="mrpZGqUkOIdRUqxAna4f-38" style="edgeStyle=orthogonalEdgeStyle;rounded=0;orthogonalLoop=1;jettySize=auto;html=1;exitX=0.5;exitY=1;exitDx=0;exitDy=0;entryX=0.5;entryY=0;entryDx=0;entryDy=0;endArrow=none;endFill=0;" edge="1" parent="1" source="d9idjgLGeZkNx8XCs1Kq-5" target="d9idjgLGeZkNx8XCs1Kq-3">
          <mxGeometry relative="1" as="geometry" />
        </mxCell>
        <mxCell id="d9idjgLGeZkNx8XCs1Kq-5" value="&lt;u&gt;id&lt;/u&gt;" style="ellipse;whiteSpace=wrap;html=1;" parent="1" vertex="1">
          <mxGeometry x="20.96" width="120" height="80" as="geometry" />
        </mxCell>
        <mxCell id="mrpZGqUkOIdRUqxAna4f-39" style="edgeStyle=orthogonalEdgeStyle;rounded=0;orthogonalLoop=1;jettySize=auto;html=1;exitX=0.5;exitY=1;exitDx=0;exitDy=0;entryX=0.5;entryY=0;entryDx=0;entryDy=0;endArrow=none;endFill=0;" edge="1" parent="1" source="d9idjgLGeZkNx8XCs1Kq-6" target="d9idjgLGeZkNx8XCs1Kq-3">
          <mxGeometry relative="1" as="geometry" />
        </mxCell>
        <mxCell id="d9idjgLGeZkNx8XCs1Kq-6" value="jelszo" style="ellipse;whiteSpace=wrap;html=1;" parent="1" vertex="1">
          <mxGeometry x="419.04" width="120" height="80" as="geometry" />
        </mxCell>
        <mxCell id="d9idjgLGeZkNx8XCs1Kq-12" value="Szerver" style="rounded=0;whiteSpace=wrap;html=1;" parent="1" vertex="1">
          <mxGeometry x="1310" y="170" width="120" height="60" as="geometry" />
        </mxCell>
        <mxCell id="mrpZGqUkOIdRUqxAna4f-42" style="edgeStyle=orthogonalEdgeStyle;rounded=0;orthogonalLoop=1;jettySize=auto;html=1;exitX=0.5;exitY=1;exitDx=0;exitDy=0;entryX=0.5;entryY=0;entryDx=0;entryDy=0;endArrow=none;endFill=0;" edge="1" parent="1" source="d9idjgLGeZkNx8XCs1Kq-13" target="d9idjgLGeZkNx8XCs1Kq-12">
          <mxGeometry relative="1" as="geometry" />
        </mxCell>
        <mxCell id="d9idjgLGeZkNx8XCs1Kq-13" value="&lt;u&gt;id&lt;/u&gt;" style="ellipse;whiteSpace=wrap;html=1;" parent="1" vertex="1">
          <mxGeometry x="1374" width="120" height="80" as="geometry" />
        </mxCell>
        <mxCell id="mrpZGqUkOIdRUqxAna4f-43" style="edgeStyle=orthogonalEdgeStyle;rounded=0;orthogonalLoop=1;jettySize=auto;html=1;exitX=0.5;exitY=1;exitDx=0;exitDy=0;entryX=0.5;entryY=0;entryDx=0;entryDy=0;endArrow=none;endFill=0;" edge="1" parent="1" source="d9idjgLGeZkNx8XCs1Kq-15" target="d9idjgLGeZkNx8XCs1Kq-12">
          <mxGeometry relative="1" as="geometry" />
        </mxCell>
        <mxCell id="d9idjgLGeZkNx8XCs1Kq-15" value="nev" style="ellipse;whiteSpace=wrap;html=1;" parent="1" vertex="1">
          <mxGeometry x="1246" width="120" height="80" as="geometry" />
        </mxCell>
        <mxCell id="d9idjgLGeZkNx8XCs1Kq-18" value="Felhasznalo-&lt;br&gt;Szerver" style="rhombus;whiteSpace=wrap;html=1;" parent="1" vertex="1">
          <mxGeometry x="930" y="140" width="120" height="120" as="geometry" />
        </mxCell>
        <mxCell id="mrpZGqUkOIdRUqxAna4f-41" style="edgeStyle=orthogonalEdgeStyle;rounded=0;orthogonalLoop=1;jettySize=auto;html=1;exitX=0.5;exitY=1;exitDx=0;exitDy=0;endArrow=none;endFill=0;" edge="1" parent="1" source="d9idjgLGeZkNx8XCs1Kq-19">
          <mxGeometry relative="1" as="geometry">
            <mxPoint x="990" y="140" as="targetPoint" />
          </mxGeometry>
        </mxCell>
        <mxCell id="d9idjgLGeZkNx8XCs1Kq-19" value="&lt;u&gt;felhasznaloId&lt;/u&gt;" style="ellipse;whiteSpace=wrap;html=1;" parent="1" vertex="1">
          <mxGeometry x="800" width="120" height="80" as="geometry" />
        </mxCell>
        <mxCell id="mrpZGqUkOIdRUqxAna4f-40" style="edgeStyle=orthogonalEdgeStyle;rounded=0;orthogonalLoop=1;jettySize=auto;html=1;exitX=0.5;exitY=1;exitDx=0;exitDy=0;entryX=0.5;entryY=0;entryDx=0;entryDy=0;endArrow=none;endFill=0;" edge="1" parent="1" source="d9idjgLGeZkNx8XCs1Kq-20" target="d9idjgLGeZkNx8XCs1Kq-18">
          <mxGeometry relative="1" as="geometry" />
        </mxCell>
        <mxCell id="d9idjgLGeZkNx8XCs1Kq-20" value="&lt;u&gt;szerverId&lt;/u&gt;" style="ellipse;whiteSpace=wrap;html=1;" parent="1" vertex="1">
          <mxGeometry x="1060" width="120" height="80" as="geometry" />
        </mxCell>
        <mxCell id="d9idjgLGeZkNx8XCs1Kq-24" value="" style="endArrow=none;html=1;rounded=0;exitX=1;exitY=0.5;exitDx=0;exitDy=0;entryX=0;entryY=0.5;entryDx=0;entryDy=0;" parent="1" source="d9idjgLGeZkNx8XCs1Kq-3" target="d9idjgLGeZkNx8XCs1Kq-18" edge="1">
          <mxGeometry width="50" height="50" relative="1" as="geometry">
            <mxPoint x="460" y="320" as="sourcePoint" />
            <mxPoint x="510" y="270" as="targetPoint" />
          </mxGeometry>
        </mxCell>
        <mxCell id="d9idjgLGeZkNx8XCs1Kq-28" value="" style="endArrow=none;html=1;rounded=0;exitX=1;exitY=0.5;exitDx=0;exitDy=0;entryX=0;entryY=0.5;entryDx=0;entryDy=0;" parent="1" source="d9idjgLGeZkNx8XCs1Kq-18" target="d9idjgLGeZkNx8XCs1Kq-12" edge="1">
          <mxGeometry width="50" height="50" relative="1" as="geometry">
            <mxPoint x="1080" y="290" as="sourcePoint" />
            <mxPoint x="1130" y="240" as="targetPoint" />
          </mxGeometry>
        </mxCell>
        <mxCell id="1mJTOALeoTQ1OMjtF4g4-31" style="edgeStyle=orthogonalEdgeStyle;rounded=0;orthogonalLoop=1;jettySize=auto;html=1;exitX=0;exitY=0.75;exitDx=0;exitDy=0;entryX=0.5;entryY=0;entryDx=0;entryDy=0;endArrow=none;endFill=0;" parent="1" source="d9idjgLGeZkNx8XCs1Kq-29" target="d9idjgLGeZkNx8XCs1Kq-46" edge="1">
          <mxGeometry relative="1" as="geometry" />
        </mxCell>
        <mxCell id="1mJTOALeoTQ1OMjtF4g4-32" style="edgeStyle=orthogonalEdgeStyle;rounded=0;orthogonalLoop=1;jettySize=auto;html=1;exitX=0;exitY=0.25;exitDx=0;exitDy=0;entryX=0.5;entryY=1;entryDx=0;entryDy=0;endArrow=none;endFill=0;" parent="1" source="d9idjgLGeZkNx8XCs1Kq-29" target="d9idjgLGeZkNx8XCs1Kq-42" edge="1">
          <mxGeometry relative="1" as="geometry" />
        </mxCell>
        <mxCell id="1mJTOALeoTQ1OMjtF4g4-33" style="edgeStyle=orthogonalEdgeStyle;rounded=0;orthogonalLoop=1;jettySize=auto;html=1;exitX=0;exitY=0.75;exitDx=0;exitDy=0;entryX=0.5;entryY=0;entryDx=0;entryDy=0;endArrow=none;endFill=0;" parent="1" source="d9idjgLGeZkNx8XCs1Kq-29" target="d9idjgLGeZkNx8XCs1Kq-48" edge="1">
          <mxGeometry relative="1" as="geometry" />
        </mxCell>
        <mxCell id="1mJTOALeoTQ1OMjtF4g4-34" style="edgeStyle=orthogonalEdgeStyle;rounded=0;orthogonalLoop=1;jettySize=auto;html=1;exitX=0;exitY=0.75;exitDx=0;exitDy=0;entryX=0.5;entryY=0;entryDx=0;entryDy=0;endArrow=none;endFill=0;" parent="1" source="d9idjgLGeZkNx8XCs1Kq-29" target="d9idjgLGeZkNx8XCs1Kq-55" edge="1">
          <mxGeometry relative="1" as="geometry" />
        </mxCell>
        <mxCell id="1mJTOALeoTQ1OMjtF4g4-35" style="edgeStyle=orthogonalEdgeStyle;rounded=0;orthogonalLoop=1;jettySize=auto;html=1;exitX=0;exitY=0.75;exitDx=0;exitDy=0;entryX=0.5;entryY=0;entryDx=0;entryDy=0;endArrow=none;endFill=0;" parent="1" source="d9idjgLGeZkNx8XCs1Kq-29" target="d9idjgLGeZkNx8XCs1Kq-59" edge="1">
          <mxGeometry relative="1" as="geometry" />
        </mxCell>
        <mxCell id="1mJTOALeoTQ1OMjtF4g4-36" style="edgeStyle=orthogonalEdgeStyle;rounded=0;orthogonalLoop=1;jettySize=auto;html=1;exitX=0;exitY=0.75;exitDx=0;exitDy=0;entryX=0.5;entryY=0;entryDx=0;entryDy=0;endArrow=none;endFill=0;" parent="1" source="d9idjgLGeZkNx8XCs1Kq-29" target="d9idjgLGeZkNx8XCs1Kq-44" edge="1">
          <mxGeometry relative="1" as="geometry" />
        </mxCell>
        <mxCell id="1mJTOALeoTQ1OMjtF4g4-37" style="edgeStyle=orthogonalEdgeStyle;rounded=0;orthogonalLoop=1;jettySize=auto;html=1;exitX=0;exitY=0.75;exitDx=0;exitDy=0;entryX=0.5;entryY=0;entryDx=0;entryDy=0;endArrow=none;endFill=0;" parent="1" source="d9idjgLGeZkNx8XCs1Kq-29" target="d9idjgLGeZkNx8XCs1Kq-52" edge="1">
          <mxGeometry relative="1" as="geometry" />
        </mxCell>
        <mxCell id="1mJTOALeoTQ1OMjtF4g4-38" style="edgeStyle=orthogonalEdgeStyle;rounded=0;orthogonalLoop=1;jettySize=auto;html=1;exitX=0;exitY=0.75;exitDx=0;exitDy=0;entryX=0.5;entryY=0;entryDx=0;entryDy=0;endArrow=none;endFill=0;" parent="1" source="d9idjgLGeZkNx8XCs1Kq-29" target="d9idjgLGeZkNx8XCs1Kq-50" edge="1">
          <mxGeometry relative="1" as="geometry" />
        </mxCell>
        <mxCell id="1mJTOALeoTQ1OMjtF4g4-39" style="edgeStyle=orthogonalEdgeStyle;rounded=0;orthogonalLoop=1;jettySize=auto;html=1;exitX=0;exitY=0.25;exitDx=0;exitDy=0;entryX=0.5;entryY=1;entryDx=0;entryDy=0;endArrow=none;endFill=0;" parent="1" source="d9idjgLGeZkNx8XCs1Kq-29" target="d9idjgLGeZkNx8XCs1Kq-57" edge="1">
          <mxGeometry relative="1" as="geometry" />
        </mxCell>
        <mxCell id="1mJTOALeoTQ1OMjtF4g4-40" style="edgeStyle=orthogonalEdgeStyle;rounded=0;orthogonalLoop=1;jettySize=auto;html=1;exitX=0;exitY=0.25;exitDx=0;exitDy=0;entryX=0.5;entryY=1;entryDx=0;entryDy=0;endArrow=none;endFill=0;" parent="1" source="d9idjgLGeZkNx8XCs1Kq-29" target="d9idjgLGeZkNx8XCs1Kq-61" edge="1">
          <mxGeometry relative="1" as="geometry" />
        </mxCell>
        <mxCell id="1mJTOALeoTQ1OMjtF4g4-41" style="edgeStyle=orthogonalEdgeStyle;rounded=0;orthogonalLoop=1;jettySize=auto;html=1;exitX=0;exitY=0.25;exitDx=0;exitDy=0;entryX=0.5;entryY=1;entryDx=0;entryDy=0;endArrow=none;endFill=0;" parent="1" source="d9idjgLGeZkNx8XCs1Kq-29" target="d9idjgLGeZkNx8XCs1Kq-30" edge="1">
          <mxGeometry relative="1" as="geometry" />
        </mxCell>
        <mxCell id="1mJTOALeoTQ1OMjtF4g4-42" style="edgeStyle=orthogonalEdgeStyle;rounded=0;orthogonalLoop=1;jettySize=auto;html=1;exitX=0;exitY=0.25;exitDx=0;exitDy=0;entryX=0.5;entryY=1;entryDx=0;entryDy=0;endArrow=none;endFill=0;" parent="1" source="d9idjgLGeZkNx8XCs1Kq-29" target="d9idjgLGeZkNx8XCs1Kq-31" edge="1">
          <mxGeometry relative="1" as="geometry" />
        </mxCell>
        <mxCell id="1mJTOALeoTQ1OMjtF4g4-43" style="edgeStyle=orthogonalEdgeStyle;rounded=0;orthogonalLoop=1;jettySize=auto;html=1;exitX=0;exitY=0.25;exitDx=0;exitDy=0;entryX=0.5;entryY=1;entryDx=0;entryDy=0;endArrow=none;endFill=0;" parent="1" source="d9idjgLGeZkNx8XCs1Kq-29" target="d9idjgLGeZkNx8XCs1Kq-40" edge="1">
          <mxGeometry relative="1" as="geometry" />
        </mxCell>
        <mxCell id="mrpZGqUkOIdRUqxAna4f-11" style="edgeStyle=orthogonalEdgeStyle;rounded=0;orthogonalLoop=1;jettySize=auto;html=1;exitX=0.5;exitY=0;exitDx=0;exitDy=0;entryX=0.25;entryY=1;entryDx=0;entryDy=0;" edge="1" parent="1" source="d9idjgLGeZkNx8XCs1Kq-29" target="d9idjgLGeZkNx8XCs1Kq-3">
          <mxGeometry relative="1" as="geometry">
            <Array as="points">
              <mxPoint x="148" y="320" />
              <mxPoint x="250" y="320" />
            </Array>
          </mxGeometry>
        </mxCell>
        <mxCell id="d9idjgLGeZkNx8XCs1Kq-29" value="Karakter" style="rounded=0;whiteSpace=wrap;html=1;" parent="1" vertex="1">
          <mxGeometry x="88" y="570" width="120" height="60" as="geometry" />
        </mxCell>
        <mxCell id="d9idjgLGeZkNx8XCs1Kq-30" value="szerverId" style="ellipse;whiteSpace=wrap;html=1;" parent="1" vertex="1">
          <mxGeometry x="-506" y="480" width="120" height="80" as="geometry" />
        </mxCell>
        <mxCell id="d9idjgLGeZkNx8XCs1Kq-31" value="felhasznaloId" style="ellipse;whiteSpace=wrap;html=1;" parent="1" vertex="1">
          <mxGeometry x="-636" y="480" width="120" height="80" as="geometry" />
        </mxCell>
        <mxCell id="d9idjgLGeZkNx8XCs1Kq-40" value="&lt;u&gt;id&lt;/u&gt;" style="ellipse;whiteSpace=wrap;html=1;" parent="1" vertex="1">
          <mxGeometry x="-766" y="480" width="120" height="80" as="geometry" />
        </mxCell>
        <mxCell id="d9idjgLGeZkNx8XCs1Kq-42" value="nem" style="ellipse;whiteSpace=wrap;html=1;" parent="1" vertex="1">
          <mxGeometry x="-246" y="480" width="120" height="80" as="geometry" />
        </mxCell>
        <mxCell id="d9idjgLGeZkNx8XCs1Kq-44" value="kasztId" style="ellipse;whiteSpace=wrap;html=1;" parent="1" vertex="1">
          <mxGeometry x="-506" y="652" width="120" height="80" as="geometry" />
        </mxCell>
        <mxCell id="d9idjgLGeZkNx8XCs1Kq-46" value="tapasztalatPont" style="ellipse;whiteSpace=wrap;html=1;" parent="1" vertex="1">
          <mxGeometry x="-636" y="652" width="120" height="80" as="geometry" />
        </mxCell>
        <mxCell id="d9idjgLGeZkNx8XCs1Kq-48" value="szint" style="ellipse;whiteSpace=wrap;html=1;" parent="1" vertex="1">
          <mxGeometry x="-116" y="650" width="120" height="80" as="geometry" />
        </mxCell>
        <mxCell id="d9idjgLGeZkNx8XCs1Kq-50" value="eletero" style="ellipse;whiteSpace=wrap;html=1;" parent="1" vertex="1">
          <mxGeometry x="-900" y="652" width="120" height="80" as="geometry" />
        </mxCell>
        <mxCell id="d9idjgLGeZkNx8XCs1Kq-52" value="sebzes" style="ellipse;whiteSpace=wrap;html=1;" parent="1" vertex="1">
          <mxGeometry x="-766" y="650" width="120" height="80" as="geometry" />
        </mxCell>
        <mxCell id="d9idjgLGeZkNx8XCs1Kq-55" value="parbajraHivhato" style="ellipse;whiteSpace=wrap;html=1;" parent="1" vertex="1">
          <mxGeometry x="-246" y="652" width="120" height="80" as="geometry" />
        </mxCell>
        <mxCell id="d9idjgLGeZkNx8XCs1Kq-57" value="csoportId" style="ellipse;whiteSpace=wrap;html=1;" parent="1" vertex="1">
          <mxGeometry x="-116" y="480" width="120" height="80" as="geometry" />
        </mxCell>
        <mxCell id="d9idjgLGeZkNx8XCs1Kq-59" value="arany" style="ellipse;whiteSpace=wrap;html=1;" parent="1" vertex="1">
          <mxGeometry x="-376" y="650" width="120" height="80" as="geometry" />
        </mxCell>
        <mxCell id="d9idjgLGeZkNx8XCs1Kq-61" value="onlineVan" style="ellipse;whiteSpace=wrap;html=1;" parent="1" vertex="1">
          <mxGeometry x="-376" y="480" width="120" height="80" as="geometry" />
        </mxCell>
        <mxCell id="1mJTOALeoTQ1OMjtF4g4-19" style="edgeStyle=orthogonalEdgeStyle;rounded=0;orthogonalLoop=1;jettySize=auto;html=1;exitX=1;exitY=0.5;exitDx=0;exitDy=0;entryX=0;entryY=0.5;entryDx=0;entryDy=0;endArrow=none;endFill=0;" parent="1" source="d9idjgLGeZkNx8XCs1Kq-63" target="d9idjgLGeZkNx8XCs1Kq-64" edge="1">
          <mxGeometry relative="1" as="geometry" />
        </mxCell>
        <mxCell id="1mJTOALeoTQ1OMjtF4g4-20" style="edgeStyle=orthogonalEdgeStyle;rounded=0;orthogonalLoop=1;jettySize=auto;html=1;exitX=1;exitY=0.5;exitDx=0;exitDy=0;entryX=0;entryY=0.5;entryDx=0;entryDy=0;endArrow=none;endFill=0;" parent="1" source="d9idjgLGeZkNx8XCs1Kq-63" target="d9idjgLGeZkNx8XCs1Kq-70" edge="1">
          <mxGeometry relative="1" as="geometry" />
        </mxCell>
        <mxCell id="1mJTOALeoTQ1OMjtF4g4-21" style="edgeStyle=orthogonalEdgeStyle;rounded=0;orthogonalLoop=1;jettySize=auto;html=1;exitX=1;exitY=0.5;exitDx=0;exitDy=0;entryX=0;entryY=0.5;entryDx=0;entryDy=0;endArrow=none;endFill=0;" parent="1" source="d9idjgLGeZkNx8XCs1Kq-63" target="d9idjgLGeZkNx8XCs1Kq-68" edge="1">
          <mxGeometry relative="1" as="geometry" />
        </mxCell>
        <mxCell id="1mJTOALeoTQ1OMjtF4g4-22" style="edgeStyle=orthogonalEdgeStyle;rounded=0;orthogonalLoop=1;jettySize=auto;html=1;exitX=1;exitY=0.5;exitDx=0;exitDy=0;entryX=0;entryY=0.5;entryDx=0;entryDy=0;endArrow=none;endFill=0;" parent="1" source="d9idjgLGeZkNx8XCs1Kq-63" target="d9idjgLGeZkNx8XCs1Kq-66" edge="1">
          <mxGeometry relative="1" as="geometry" />
        </mxCell>
        <mxCell id="d9idjgLGeZkNx8XCs1Kq-63" value="Kepesseg" style="rounded=0;whiteSpace=wrap;html=1;" parent="1" vertex="1">
          <mxGeometry x="1376" y="595" width="120" height="60" as="geometry" />
        </mxCell>
        <mxCell id="d9idjgLGeZkNx8XCs1Kq-64" value="&lt;u&gt;id&lt;/u&gt;" style="ellipse;whiteSpace=wrap;html=1;" parent="1" vertex="1">
          <mxGeometry x="1556" y="456" width="120" height="80" as="geometry" />
        </mxCell>
        <mxCell id="d9idjgLGeZkNx8XCs1Kq-66" value="nev" style="ellipse;whiteSpace=wrap;html=1;" parent="1" vertex="1">
          <mxGeometry x="1556" y="726" width="120" height="80" as="geometry" />
        </mxCell>
        <mxCell id="d9idjgLGeZkNx8XCs1Kq-68" value="sebzes" style="ellipse;whiteSpace=wrap;html=1;" parent="1" vertex="1">
          <mxGeometry x="1556" y="636" width="120" height="80" as="geometry" />
        </mxCell>
        <mxCell id="d9idjgLGeZkNx8XCs1Kq-70" value="kasztId" style="ellipse;whiteSpace=wrap;html=1;" parent="1" vertex="1">
          <mxGeometry x="1556" y="546" width="120" height="80" as="geometry" />
        </mxCell>
        <mxCell id="1mJTOALeoTQ1OMjtF4g4-23" style="edgeStyle=orthogonalEdgeStyle;rounded=0;orthogonalLoop=1;jettySize=auto;html=1;exitX=0.75;exitY=0;exitDx=0;exitDy=0;entryX=0;entryY=0.5;entryDx=0;entryDy=0;endArrow=none;endFill=0;" parent="1" source="d9idjgLGeZkNx8XCs1Kq-83" target="d9idjgLGeZkNx8XCs1Kq-90" edge="1">
          <mxGeometry relative="1" as="geometry" />
        </mxCell>
        <mxCell id="1mJTOALeoTQ1OMjtF4g4-24" style="edgeStyle=orthogonalEdgeStyle;rounded=0;orthogonalLoop=1;jettySize=auto;html=1;exitX=0.75;exitY=0;exitDx=0;exitDy=0;entryX=0;entryY=0.5;entryDx=0;entryDy=0;endArrow=none;endFill=0;" parent="1" source="d9idjgLGeZkNx8XCs1Kq-83" target="d9idjgLGeZkNx8XCs1Kq-92" edge="1">
          <mxGeometry relative="1" as="geometry" />
        </mxCell>
        <mxCell id="1mJTOALeoTQ1OMjtF4g4-25" style="edgeStyle=orthogonalEdgeStyle;rounded=0;orthogonalLoop=1;jettySize=auto;html=1;exitX=0.75;exitY=0;exitDx=0;exitDy=0;entryX=0;entryY=0.5;entryDx=0;entryDy=0;endArrow=none;endFill=0;" parent="1" source="d9idjgLGeZkNx8XCs1Kq-83" target="d9idjgLGeZkNx8XCs1Kq-94" edge="1">
          <mxGeometry relative="1" as="geometry" />
        </mxCell>
        <mxCell id="1mJTOALeoTQ1OMjtF4g4-26" style="edgeStyle=orthogonalEdgeStyle;rounded=0;orthogonalLoop=1;jettySize=auto;html=1;exitX=0.75;exitY=0;exitDx=0;exitDy=0;entryX=0;entryY=0.5;entryDx=0;entryDy=0;endArrow=none;endFill=0;" parent="1" source="d9idjgLGeZkNx8XCs1Kq-83" target="d9idjgLGeZkNx8XCs1Kq-96" edge="1">
          <mxGeometry relative="1" as="geometry" />
        </mxCell>
        <mxCell id="d9idjgLGeZkNx8XCs1Kq-83" value="Felszereles" style="rounded=0;whiteSpace=wrap;html=1;" parent="1" vertex="1">
          <mxGeometry x="930" y="861" width="120" height="60" as="geometry" />
        </mxCell>
        <mxCell id="1mJTOALeoTQ1OMjtF4g4-10" style="edgeStyle=orthogonalEdgeStyle;rounded=0;orthogonalLoop=1;jettySize=auto;html=1;exitX=1;exitY=0.5;exitDx=0;exitDy=0;entryX=0.25;entryY=0;entryDx=0;entryDy=0;endArrow=none;endFill=0;" parent="1" source="d9idjgLGeZkNx8XCs1Kq-84" target="d9idjgLGeZkNx8XCs1Kq-83" edge="1">
          <mxGeometry relative="1" as="geometry" />
        </mxCell>
        <mxCell id="d9idjgLGeZkNx8XCs1Kq-84" value="&lt;u&gt;id&lt;/u&gt;" style="ellipse;whiteSpace=wrap;html=1;" parent="1" vertex="1">
          <mxGeometry x="810" y="571" width="120" height="80" as="geometry" />
        </mxCell>
        <mxCell id="1mJTOALeoTQ1OMjtF4g4-11" style="edgeStyle=orthogonalEdgeStyle;rounded=0;orthogonalLoop=1;jettySize=auto;html=1;exitX=1;exitY=0.5;exitDx=0;exitDy=0;entryX=0.25;entryY=0;entryDx=0;entryDy=0;endArrow=none;endFill=0;" parent="1" source="d9idjgLGeZkNx8XCs1Kq-86" target="d9idjgLGeZkNx8XCs1Kq-83" edge="1">
          <mxGeometry relative="1" as="geometry" />
        </mxCell>
        <mxCell id="d9idjgLGeZkNx8XCs1Kq-86" value="nev" style="ellipse;whiteSpace=wrap;html=1;" parent="1" vertex="1">
          <mxGeometry x="810" y="663" width="120" height="80" as="geometry" />
        </mxCell>
        <mxCell id="1mJTOALeoTQ1OMjtF4g4-12" style="edgeStyle=orthogonalEdgeStyle;rounded=0;orthogonalLoop=1;jettySize=auto;html=1;exitX=1;exitY=0.5;exitDx=0;exitDy=0;entryX=0.25;entryY=0;entryDx=0;entryDy=0;endArrow=none;endFill=0;" parent="1" source="d9idjgLGeZkNx8XCs1Kq-88" target="d9idjgLGeZkNx8XCs1Kq-83" edge="1">
          <mxGeometry relative="1" as="geometry" />
        </mxCell>
        <mxCell id="d9idjgLGeZkNx8XCs1Kq-88" value="kasztId" style="ellipse;whiteSpace=wrap;html=1;" parent="1" vertex="1">
          <mxGeometry x="810" y="753" width="120" height="80" as="geometry" />
        </mxCell>
        <mxCell id="d9idjgLGeZkNx8XCs1Kq-90" value="sebzes" style="ellipse;whiteSpace=wrap;html=1;" parent="1" vertex="1">
          <mxGeometry x="1050" y="753" width="120" height="80" as="geometry" />
        </mxCell>
        <mxCell id="d9idjgLGeZkNx8XCs1Kq-92" value="eletero" style="ellipse;whiteSpace=wrap;html=1;" parent="1" vertex="1">
          <mxGeometry x="1050" y="661" width="120" height="80" as="geometry" />
        </mxCell>
        <mxCell id="d9idjgLGeZkNx8XCs1Kq-94" value="minimumSzint" style="ellipse;whiteSpace=wrap;html=1;" parent="1" vertex="1">
          <mxGeometry x="1050" y="571" width="120" height="80" as="geometry" />
        </mxCell>
        <mxCell id="d9idjgLGeZkNx8XCs1Kq-96" value="ar" style="ellipse;whiteSpace=wrap;html=1;" parent="1" vertex="1">
          <mxGeometry x="1050" y="481" width="120" height="80" as="geometry" />
        </mxCell>
        <mxCell id="mrpZGqUkOIdRUqxAna4f-30" style="edgeStyle=orthogonalEdgeStyle;rounded=0;orthogonalLoop=1;jettySize=auto;html=1;exitX=0.75;exitY=0;exitDx=0;exitDy=0;entryX=0;entryY=0.5;entryDx=0;entryDy=0;endArrow=none;endFill=0;" edge="1" parent="1" source="d9idjgLGeZkNx8XCs1Kq-98" target="1mJTOALeoTQ1OMjtF4g4-1">
          <mxGeometry relative="1" as="geometry" />
        </mxCell>
        <mxCell id="mrpZGqUkOIdRUqxAna4f-32" style="edgeStyle=orthogonalEdgeStyle;rounded=0;orthogonalLoop=1;jettySize=auto;html=1;exitX=0.25;exitY=0;exitDx=0;exitDy=0;entryX=0.25;entryY=1;entryDx=0;entryDy=0;" edge="1" parent="1" source="d9idjgLGeZkNx8XCs1Kq-98" target="d9idjgLGeZkNx8XCs1Kq-113">
          <mxGeometry relative="1" as="geometry" />
        </mxCell>
        <mxCell id="d9idjgLGeZkNx8XCs1Kq-98" value="Szorny" style="rounded=0;whiteSpace=wrap;html=1;" parent="1" vertex="1">
          <mxGeometry x="-409.92" y="1435.75" width="120" height="60" as="geometry" />
        </mxCell>
        <mxCell id="1mJTOALeoTQ1OMjtF4g4-49" style="edgeStyle=orthogonalEdgeStyle;rounded=0;orthogonalLoop=1;jettySize=auto;html=1;exitX=0.5;exitY=0;exitDx=0;exitDy=0;endArrow=none;endFill=0;" parent="1" source="d9idjgLGeZkNx8XCs1Kq-99" edge="1">
          <mxGeometry relative="1" as="geometry">
            <mxPoint x="-349.92" y="1495.75" as="targetPoint" />
          </mxGeometry>
        </mxCell>
        <mxCell id="d9idjgLGeZkNx8XCs1Kq-99" value="&lt;u&gt;id&lt;/u&gt;" style="ellipse;whiteSpace=wrap;html=1;" parent="1" vertex="1">
          <mxGeometry x="-410.92" y="1575.75" width="120" height="80" as="geometry" />
        </mxCell>
        <mxCell id="1mJTOALeoTQ1OMjtF4g4-48" style="edgeStyle=orthogonalEdgeStyle;rounded=0;orthogonalLoop=1;jettySize=auto;html=1;exitX=0.5;exitY=0;exitDx=0;exitDy=0;entryX=0.5;entryY=1;entryDx=0;entryDy=0;endArrow=none;endFill=0;" parent="1" source="d9idjgLGeZkNx8XCs1Kq-101" target="d9idjgLGeZkNx8XCs1Kq-98" edge="1">
          <mxGeometry relative="1" as="geometry" />
        </mxCell>
        <mxCell id="d9idjgLGeZkNx8XCs1Kq-101" value="nev" style="ellipse;whiteSpace=wrap;html=1;" parent="1" vertex="1">
          <mxGeometry x="-540.92" y="1575.75" width="120" height="80" as="geometry" />
        </mxCell>
        <mxCell id="1mJTOALeoTQ1OMjtF4g4-51" style="edgeStyle=orthogonalEdgeStyle;rounded=0;orthogonalLoop=1;jettySize=auto;html=1;exitX=0.5;exitY=0;exitDx=0;exitDy=0;endArrow=none;endFill=0;" parent="1" source="d9idjgLGeZkNx8XCs1Kq-103" edge="1">
          <mxGeometry relative="1" as="geometry">
            <mxPoint x="-349.92" y="1495.75" as="targetPoint" />
          </mxGeometry>
        </mxCell>
        <mxCell id="d9idjgLGeZkNx8XCs1Kq-103" value="eletero" style="ellipse;whiteSpace=wrap;html=1;" parent="1" vertex="1">
          <mxGeometry x="-149.92" y="1575.75" width="120" height="80" as="geometry" />
        </mxCell>
        <mxCell id="1mJTOALeoTQ1OMjtF4g4-52" style="edgeStyle=orthogonalEdgeStyle;rounded=0;orthogonalLoop=1;jettySize=auto;html=1;exitX=0.5;exitY=0;exitDx=0;exitDy=0;endArrow=none;endFill=0;" parent="1" source="d9idjgLGeZkNx8XCs1Kq-105" edge="1">
          <mxGeometry relative="1" as="geometry">
            <mxPoint x="-349.92" y="1495.75" as="targetPoint" />
          </mxGeometry>
        </mxCell>
        <mxCell id="d9idjgLGeZkNx8XCs1Kq-105" value="sebzes" style="ellipse;whiteSpace=wrap;html=1;" parent="1" vertex="1">
          <mxGeometry x="-19.92" y="1575.75" width="120" height="80" as="geometry" />
        </mxCell>
        <mxCell id="1mJTOALeoTQ1OMjtF4g4-47" style="edgeStyle=orthogonalEdgeStyle;rounded=0;orthogonalLoop=1;jettySize=auto;html=1;exitX=0.5;exitY=0;exitDx=0;exitDy=0;endArrow=none;endFill=0;" parent="1" source="d9idjgLGeZkNx8XCs1Kq-107" edge="1">
          <mxGeometry relative="1" as="geometry">
            <mxPoint x="-349.92" y="1495.75" as="targetPoint" />
          </mxGeometry>
        </mxCell>
        <mxCell id="d9idjgLGeZkNx8XCs1Kq-107" value="szint" style="ellipse;whiteSpace=wrap;html=1;" parent="1" vertex="1">
          <mxGeometry x="-669.92" y="1575.75" width="120" height="80" as="geometry" />
        </mxCell>
        <mxCell id="1mJTOALeoTQ1OMjtF4g4-46" style="edgeStyle=orthogonalEdgeStyle;rounded=0;orthogonalLoop=1;jettySize=auto;html=1;exitX=0.5;exitY=0;exitDx=0;exitDy=0;entryX=0.5;entryY=1;entryDx=0;entryDy=0;endArrow=none;endFill=0;" parent="1" source="d9idjgLGeZkNx8XCs1Kq-109" target="d9idjgLGeZkNx8XCs1Kq-98" edge="1">
          <mxGeometry relative="1" as="geometry" />
        </mxCell>
        <mxCell id="d9idjgLGeZkNx8XCs1Kq-109" value="aranyatDobhat" style="ellipse;whiteSpace=wrap;html=1;" parent="1" vertex="1">
          <mxGeometry x="-799.92" y="1575.75" width="120" height="80" as="geometry" />
        </mxCell>
        <mxCell id="1mJTOALeoTQ1OMjtF4g4-50" style="edgeStyle=orthogonalEdgeStyle;rounded=0;orthogonalLoop=1;jettySize=auto;html=1;exitX=0.5;exitY=0;exitDx=0;exitDy=0;entryX=0.5;entryY=1;entryDx=0;entryDy=0;endArrow=none;endFill=0;" parent="1" source="d9idjgLGeZkNx8XCs1Kq-111" target="d9idjgLGeZkNx8XCs1Kq-98" edge="1">
          <mxGeometry relative="1" as="geometry" />
        </mxCell>
        <mxCell id="d9idjgLGeZkNx8XCs1Kq-111" value="helyszinId" style="ellipse;whiteSpace=wrap;html=1;" parent="1" vertex="1">
          <mxGeometry x="-279.92" y="1575.75" width="120" height="80" as="geometry" />
        </mxCell>
        <mxCell id="mrpZGqUkOIdRUqxAna4f-31" style="edgeStyle=orthogonalEdgeStyle;rounded=0;orthogonalLoop=1;jettySize=auto;html=1;exitX=1;exitY=0.5;exitDx=0;exitDy=0;entryX=0.25;entryY=1;entryDx=0;entryDy=0;" edge="1" parent="1" source="d9idjgLGeZkNx8XCs1Kq-113" target="d9idjgLGeZkNx8XCs1Kq-29">
          <mxGeometry relative="1" as="geometry" />
        </mxCell>
        <mxCell id="d9idjgLGeZkNx8XCs1Kq-113" value="Helyszin" style="rounded=0;whiteSpace=wrap;html=1;" parent="1" vertex="1">
          <mxGeometry x="-410" y="868" width="120" height="60" as="geometry" />
        </mxCell>
        <mxCell id="mrpZGqUkOIdRUqxAna4f-55" style="edgeStyle=orthogonalEdgeStyle;rounded=0;orthogonalLoop=1;jettySize=auto;html=1;exitX=1;exitY=0.5;exitDx=0;exitDy=0;entryX=0;entryY=0.5;entryDx=0;entryDy=0;endArrow=none;endFill=0;" edge="1" parent="1" source="d9idjgLGeZkNx8XCs1Kq-114" target="d9idjgLGeZkNx8XCs1Kq-113">
          <mxGeometry relative="1" as="geometry" />
        </mxCell>
        <mxCell id="d9idjgLGeZkNx8XCs1Kq-114" value="&lt;u&gt;id&lt;/u&gt;" style="ellipse;whiteSpace=wrap;html=1;" parent="1" vertex="1">
          <mxGeometry x="-625.9999999999999" y="769" width="120" height="80" as="geometry" />
        </mxCell>
        <mxCell id="mrpZGqUkOIdRUqxAna4f-56" style="edgeStyle=orthogonalEdgeStyle;rounded=0;orthogonalLoop=1;jettySize=auto;html=1;exitX=1;exitY=0.5;exitDx=0;exitDy=0;entryX=0;entryY=0.5;entryDx=0;entryDy=0;endArrow=none;endFill=0;" edge="1" parent="1" source="d9idjgLGeZkNx8XCs1Kq-116" target="d9idjgLGeZkNx8XCs1Kq-113">
          <mxGeometry relative="1" as="geometry" />
        </mxCell>
        <mxCell id="d9idjgLGeZkNx8XCs1Kq-116" value="nev" style="ellipse;whiteSpace=wrap;html=1;" parent="1" vertex="1">
          <mxGeometry x="-625.9999999999999" y="858" width="120" height="80" as="geometry" />
        </mxCell>
        <mxCell id="mrpZGqUkOIdRUqxAna4f-57" style="edgeStyle=orthogonalEdgeStyle;rounded=0;orthogonalLoop=1;jettySize=auto;html=1;exitX=1;exitY=0.5;exitDx=0;exitDy=0;entryX=0;entryY=0.5;entryDx=0;entryDy=0;endArrow=none;endFill=0;" edge="1" parent="1" source="d9idjgLGeZkNx8XCs1Kq-122" target="d9idjgLGeZkNx8XCs1Kq-113">
          <mxGeometry relative="1" as="geometry" />
        </mxCell>
        <mxCell id="d9idjgLGeZkNx8XCs1Kq-122" value="minimumSzint" style="ellipse;whiteSpace=wrap;html=1;" parent="1" vertex="1">
          <mxGeometry x="-625.9999999999999" y="947" width="120" height="80" as="geometry" />
        </mxCell>
        <mxCell id="1mJTOALeoTQ1OMjtF4g4-44" style="edgeStyle=orthogonalEdgeStyle;rounded=0;orthogonalLoop=1;jettySize=auto;html=1;exitX=1;exitY=0.5;exitDx=0;exitDy=0;entryX=0.25;entryY=0;entryDx=0;entryDy=0;" parent="1" source="d9idjgLGeZkNx8XCs1Kq-128" target="d9idjgLGeZkNx8XCs1Kq-29" edge="1">
          <mxGeometry relative="1" as="geometry" />
        </mxCell>
        <mxCell id="d9idjgLGeZkNx8XCs1Kq-128" value="Csoport" style="rounded=0;whiteSpace=wrap;html=1;" parent="1" vertex="1">
          <mxGeometry x="-27" y="282" width="120" height="60" as="geometry" />
        </mxCell>
        <mxCell id="mrpZGqUkOIdRUqxAna4f-33" style="edgeStyle=orthogonalEdgeStyle;rounded=0;orthogonalLoop=1;jettySize=auto;html=1;exitX=1;exitY=0.5;exitDx=0;exitDy=0;entryX=0;entryY=0.5;entryDx=0;entryDy=0;endArrow=none;endFill=0;" edge="1" parent="1" source="d9idjgLGeZkNx8XCs1Kq-129" target="d9idjgLGeZkNx8XCs1Kq-128">
          <mxGeometry relative="1" as="geometry" />
        </mxCell>
        <mxCell id="d9idjgLGeZkNx8XCs1Kq-129" value="&lt;u&gt;id&lt;/u&gt;" style="ellipse;whiteSpace=wrap;html=1;" parent="1" vertex="1">
          <mxGeometry x="-200" y="227" width="120" height="80" as="geometry" />
        </mxCell>
        <mxCell id="mrpZGqUkOIdRUqxAna4f-34" style="edgeStyle=orthogonalEdgeStyle;rounded=0;orthogonalLoop=1;jettySize=auto;html=1;exitX=1;exitY=0.5;exitDx=0;exitDy=0;entryX=0;entryY=0.5;entryDx=0;entryDy=0;endArrow=none;endFill=0;" edge="1" parent="1" source="d9idjgLGeZkNx8XCs1Kq-131" target="d9idjgLGeZkNx8XCs1Kq-128">
          <mxGeometry relative="1" as="geometry" />
        </mxCell>
        <mxCell id="d9idjgLGeZkNx8XCs1Kq-131" value="nev" style="ellipse;whiteSpace=wrap;html=1;" parent="1" vertex="1">
          <mxGeometry x="-200" y="317" width="120" height="80" as="geometry" />
        </mxCell>
        <mxCell id="tEglWy51DRQlFk6ylOx4-1" value="Bolt" style="rounded=0;whiteSpace=wrap;html=1;" parent="1" vertex="1">
          <mxGeometry x="400" y="970" width="120" height="60" as="geometry" />
        </mxCell>
        <mxCell id="mrpZGqUkOIdRUqxAna4f-45" style="edgeStyle=orthogonalEdgeStyle;rounded=0;orthogonalLoop=1;jettySize=auto;html=1;exitX=0.5;exitY=0;exitDx=0;exitDy=0;entryX=0.5;entryY=1;entryDx=0;entryDy=0;endArrow=none;endFill=0;" edge="1" parent="1" source="tEglWy51DRQlFk6ylOx4-2" target="tEglWy51DRQlFk6ylOx4-1">
          <mxGeometry relative="1" as="geometry" />
        </mxCell>
        <mxCell id="tEglWy51DRQlFk6ylOx4-2" value="&lt;u&gt;id&lt;/u&gt;" style="ellipse;whiteSpace=wrap;html=1;" parent="1" vertex="1">
          <mxGeometry x="275.96" y="1100" width="120" height="80" as="geometry" />
        </mxCell>
        <mxCell id="tEglWy51DRQlFk6ylOx4-4" value="nev" style="ellipse;whiteSpace=wrap;html=1;" parent="1" vertex="1">
          <mxGeometry x="400" y="1100" width="120" height="80" as="geometry" />
        </mxCell>
        <mxCell id="tEglWy51DRQlFk6ylOx4-5" value="" style="endArrow=none;html=1;rounded=0;exitX=0.5;exitY=0;exitDx=0;exitDy=0;entryX=0.5;entryY=1;entryDx=0;entryDy=0;endFill=0;" parent="1" source="tEglWy51DRQlFk6ylOx4-4" target="tEglWy51DRQlFk6ylOx4-1" edge="1">
          <mxGeometry width="50" height="50" relative="1" as="geometry">
            <mxPoint x="847" y="1835.5" as="sourcePoint" />
            <mxPoint x="941" y="1485.5" as="targetPoint" />
          </mxGeometry>
        </mxCell>
        <mxCell id="zrzBswJZ8jM26afDfYwO-7" value="" style="endArrow=classic;html=1;rounded=0;exitX=0.5;exitY=0;exitDx=0;exitDy=0;entryX=0.5;entryY=1;entryDx=0;entryDy=0;" parent="1" target="d9idjgLGeZkNx8XCs1Kq-63" edge="1" source="fZHTzpQAPgce9dFF0bWE-5">
          <mxGeometry width="50" height="50" relative="1" as="geometry">
            <mxPoint x="1280" y="861" as="sourcePoint" />
            <mxPoint x="1260" y="751" as="targetPoint" />
          </mxGeometry>
        </mxCell>
        <mxCell id="zrzBswJZ8jM26afDfYwO-9" value="" style="endArrow=classic;html=1;rounded=0;exitX=0;exitY=0.5;exitDx=0;exitDy=0;entryX=1;entryY=0.5;entryDx=0;entryDy=0;" parent="1" target="d9idjgLGeZkNx8XCs1Kq-83" edge="1">
          <mxGeometry width="50" height="50" relative="1" as="geometry">
            <mxPoint x="1375" y="890" as="sourcePoint" />
            <mxPoint x="1320" y="840" as="targetPoint" />
          </mxGeometry>
        </mxCell>
        <mxCell id="zrzBswJZ8jM26afDfYwO-17" style="edgeStyle=orthogonalEdgeStyle;rounded=0;orthogonalLoop=1;jettySize=auto;html=1;exitX=0.5;exitY=1;exitDx=0;exitDy=0;entryX=1;entryY=0.25;entryDx=0;entryDy=0;endArrow=none;endFill=0;" parent="1" source="zrzBswJZ8jM26afDfYwO-13" target="d9idjgLGeZkNx8XCs1Kq-29" edge="1">
          <mxGeometry relative="1" as="geometry" />
        </mxCell>
        <mxCell id="zrzBswJZ8jM26afDfYwO-13" value="&lt;font style=&quot;font-size: 12px;&quot;&gt;Parbaj&lt;/font&gt;" style="rhombus;whiteSpace=wrap;html=1;" parent="1" vertex="1">
          <mxGeometry x="288.08" y="430" width="120" height="100" as="geometry" />
        </mxCell>
        <mxCell id="zrzBswJZ8jM26afDfYwO-18" style="edgeStyle=orthogonalEdgeStyle;rounded=0;orthogonalLoop=1;jettySize=auto;html=1;exitX=0;exitY=0.5;exitDx=0;exitDy=0;entryX=0.683;entryY=-0.017;entryDx=0;entryDy=0;entryPerimeter=0;endArrow=none;endFill=0;" parent="1" source="zrzBswJZ8jM26afDfYwO-13" target="d9idjgLGeZkNx8XCs1Kq-29" edge="1">
          <mxGeometry relative="1" as="geometry" />
        </mxCell>
        <mxCell id="1mJTOALeoTQ1OMjtF4g4-1" value="Harcol" style="rhombus;whiteSpace=wrap;html=1;" parent="1" vertex="1">
          <mxGeometry x="100.08000000000001" y="1189" width="120" height="98" as="geometry" />
        </mxCell>
        <mxCell id="mrpZGqUkOIdRUqxAna4f-26" style="edgeStyle=orthogonalEdgeStyle;rounded=0;orthogonalLoop=1;jettySize=auto;html=1;exitX=0.5;exitY=0;exitDx=0;exitDy=0;entryX=0.5;entryY=1;entryDx=0;entryDy=0;endArrow=none;endFill=0;" edge="1" parent="1" source="6lRkWIZP2LR_xqNIW5vM-26" target="1mJTOALeoTQ1OMjtF4g4-1">
          <mxGeometry relative="1" as="geometry" />
        </mxCell>
        <mxCell id="6lRkWIZP2LR_xqNIW5vM-26" value="karakter1Id" style="ellipse;whiteSpace=wrap;html=1;" parent="1" vertex="1">
          <mxGeometry x="288.08000000000004" y="1340" width="120" height="80" as="geometry" />
        </mxCell>
        <mxCell id="mrpZGqUkOIdRUqxAna4f-28" style="edgeStyle=orthogonalEdgeStyle;rounded=0;orthogonalLoop=1;jettySize=auto;html=1;exitX=0.5;exitY=0;exitDx=0;exitDy=0;entryX=0.5;entryY=1;entryDx=0;entryDy=0;endArrow=none;endFill=0;" edge="1" parent="1" source="6lRkWIZP2LR_xqNIW5vM-27" target="1mJTOALeoTQ1OMjtF4g4-1">
          <mxGeometry relative="1" as="geometry" />
        </mxCell>
        <mxCell id="6lRkWIZP2LR_xqNIW5vM-27" value="gyoztesId" style="ellipse;whiteSpace=wrap;html=1;" parent="1" vertex="1">
          <mxGeometry x="-91.91999999999994" y="1340" width="120" height="80" as="geometry" />
        </mxCell>
        <mxCell id="mrpZGqUkOIdRUqxAna4f-25" style="edgeStyle=orthogonalEdgeStyle;rounded=0;orthogonalLoop=1;jettySize=auto;html=1;exitX=0.5;exitY=0;exitDx=0;exitDy=0;entryX=0.5;entryY=1;entryDx=0;entryDy=0;endArrow=none;endFill=0;" edge="1" parent="1" source="6lRkWIZP2LR_xqNIW5vM-28" target="1mJTOALeoTQ1OMjtF4g4-1">
          <mxGeometry relative="1" as="geometry" />
        </mxCell>
        <mxCell id="6lRkWIZP2LR_xqNIW5vM-28" value="helyszinId" style="ellipse;whiteSpace=wrap;html=1;" parent="1" vertex="1">
          <mxGeometry x="38.080000000000084" y="1340" width="120" height="80" as="geometry" />
        </mxCell>
        <mxCell id="mrpZGqUkOIdRUqxAna4f-24" style="edgeStyle=orthogonalEdgeStyle;rounded=0;orthogonalLoop=1;jettySize=auto;html=1;exitX=0.5;exitY=0;exitDx=0;exitDy=0;entryX=0.5;entryY=1;entryDx=0;entryDy=0;endArrow=none;endFill=0;" edge="1" parent="1" source="6lRkWIZP2LR_xqNIW5vM-29" target="1mJTOALeoTQ1OMjtF4g4-1">
          <mxGeometry relative="1" as="geometry" />
        </mxCell>
        <mxCell id="6lRkWIZP2LR_xqNIW5vM-29" value="szornyId" style="ellipse;whiteSpace=wrap;html=1;" parent="1" vertex="1">
          <mxGeometry x="163.08000000000004" y="1340" width="120" height="80" as="geometry" />
        </mxCell>
        <mxCell id="mrpZGqUkOIdRUqxAna4f-29" style="edgeStyle=orthogonalEdgeStyle;rounded=0;orthogonalLoop=1;jettySize=auto;html=1;exitX=0.5;exitY=0;exitDx=0;exitDy=0;entryX=0.5;entryY=1;entryDx=0;entryDy=0;endArrow=none;endFill=0;" edge="1" parent="1" source="6lRkWIZP2LR_xqNIW5vM-31" target="1mJTOALeoTQ1OMjtF4g4-1">
          <mxGeometry relative="1" as="geometry" />
        </mxCell>
        <mxCell id="6lRkWIZP2LR_xqNIW5vM-31" value="harcIdeje" style="ellipse;whiteSpace=wrap;html=1;" parent="1" vertex="1">
          <mxGeometry x="-217.91999999999996" y="1340" width="120" height="80" as="geometry" />
        </mxCell>
        <mxCell id="mrpZGqUkOIdRUqxAna4f-27" style="edgeStyle=orthogonalEdgeStyle;rounded=0;orthogonalLoop=1;jettySize=auto;html=1;exitX=0.5;exitY=0;exitDx=0;exitDy=0;entryX=0.5;entryY=1;entryDx=0;entryDy=0;endArrow=none;endFill=0;" edge="1" parent="1" source="6lRkWIZP2LR_xqNIW5vM-33" target="1mJTOALeoTQ1OMjtF4g4-1">
          <mxGeometry relative="1" as="geometry" />
        </mxCell>
        <mxCell id="6lRkWIZP2LR_xqNIW5vM-33" value="harcId" style="ellipse;whiteSpace=wrap;html=1;fontStyle=4" parent="1" vertex="1">
          <mxGeometry x="418.0800000000001" y="1340" width="120" height="80" as="geometry" />
        </mxCell>
        <mxCell id="mrpZGqUkOIdRUqxAna4f-16" style="edgeStyle=orthogonalEdgeStyle;rounded=0;orthogonalLoop=1;jettySize=auto;html=1;exitX=0;exitY=0.5;exitDx=0;exitDy=0;entryX=1;entryY=0.5;entryDx=0;entryDy=0;endArrow=none;endFill=0;" edge="1" parent="1" source="6lRkWIZP2LR_xqNIW5vM-75" target="zrzBswJZ8jM26afDfYwO-13">
          <mxGeometry relative="1" as="geometry" />
        </mxCell>
        <mxCell id="6lRkWIZP2LR_xqNIW5vM-75" value="karakter1Id" style="ellipse;whiteSpace=wrap;html=1;" parent="1" vertex="1">
          <mxGeometry x="645" y="298" width="120" height="80" as="geometry" />
        </mxCell>
        <mxCell id="mrpZGqUkOIdRUqxAna4f-19" style="edgeStyle=orthogonalEdgeStyle;rounded=0;orthogonalLoop=1;jettySize=auto;html=1;exitX=0;exitY=0.5;exitDx=0;exitDy=0;entryX=1;entryY=0.5;entryDx=0;entryDy=0;endArrow=none;endFill=0;" edge="1" parent="1" source="6lRkWIZP2LR_xqNIW5vM-76" target="zrzBswJZ8jM26afDfYwO-13">
          <mxGeometry relative="1" as="geometry" />
        </mxCell>
        <mxCell id="6lRkWIZP2LR_xqNIW5vM-76" value="gyoztesId" style="ellipse;whiteSpace=wrap;html=1;" parent="1" vertex="1">
          <mxGeometry x="645" y="570" width="120" height="80" as="geometry" />
        </mxCell>
        <mxCell id="mrpZGqUkOIdRUqxAna4f-15" style="edgeStyle=orthogonalEdgeStyle;rounded=0;orthogonalLoop=1;jettySize=auto;html=1;exitX=0;exitY=0.5;exitDx=0;exitDy=0;entryX=1;entryY=0.5;entryDx=0;entryDy=0;endArrow=none;endFill=0;" edge="1" parent="1" source="6lRkWIZP2LR_xqNIW5vM-77" target="zrzBswJZ8jM26afDfYwO-13">
          <mxGeometry relative="1" as="geometry" />
        </mxCell>
        <mxCell id="6lRkWIZP2LR_xqNIW5vM-77" value="helyszinId" style="ellipse;whiteSpace=wrap;html=1;" parent="1" vertex="1">
          <mxGeometry x="645" y="478" width="120" height="80" as="geometry" />
        </mxCell>
        <mxCell id="mrpZGqUkOIdRUqxAna4f-14" style="edgeStyle=orthogonalEdgeStyle;rounded=0;orthogonalLoop=1;jettySize=auto;html=1;exitX=0;exitY=0.5;exitDx=0;exitDy=0;entryX=1;entryY=0.5;entryDx=0;entryDy=0;endArrow=none;endFill=0;" edge="1" parent="1" source="6lRkWIZP2LR_xqNIW5vM-78" target="zrzBswJZ8jM26afDfYwO-13">
          <mxGeometry relative="1" as="geometry">
            <mxPoint x="330" y="470" as="targetPoint" />
          </mxGeometry>
        </mxCell>
        <mxCell id="6lRkWIZP2LR_xqNIW5vM-78" value="karakter2d" style="ellipse;whiteSpace=wrap;html=1;" parent="1" vertex="1">
          <mxGeometry x="645" y="388" width="120" height="80" as="geometry" />
        </mxCell>
        <mxCell id="mrpZGqUkOIdRUqxAna4f-20" style="edgeStyle=orthogonalEdgeStyle;rounded=0;orthogonalLoop=1;jettySize=auto;html=1;exitX=0;exitY=0.5;exitDx=0;exitDy=0;entryX=1;entryY=0.5;entryDx=0;entryDy=0;endArrow=none;endFill=0;" edge="1" parent="1" source="6lRkWIZP2LR_xqNIW5vM-80" target="zrzBswJZ8jM26afDfYwO-13">
          <mxGeometry relative="1" as="geometry" />
        </mxCell>
        <mxCell id="6lRkWIZP2LR_xqNIW5vM-80" value="parbajIdeje" style="ellipse;whiteSpace=wrap;html=1;" parent="1" vertex="1">
          <mxGeometry x="645" y="660.9999999999999" width="120" height="80" as="geometry" />
        </mxCell>
        <mxCell id="mrpZGqUkOIdRUqxAna4f-18" style="edgeStyle=orthogonalEdgeStyle;rounded=0;orthogonalLoop=1;jettySize=auto;html=1;exitX=0;exitY=0.5;exitDx=0;exitDy=0;entryX=1;entryY=0.5;entryDx=0;entryDy=0;endArrow=none;endFill=0;" edge="1" parent="1" source="6lRkWIZP2LR_xqNIW5vM-82" target="zrzBswJZ8jM26afDfYwO-13">
          <mxGeometry relative="1" as="geometry" />
        </mxCell>
        <mxCell id="6lRkWIZP2LR_xqNIW5vM-82" value="parbajId" style="ellipse;whiteSpace=wrap;html=1;fontStyle=4" parent="1" vertex="1">
          <mxGeometry x="645" y="208" width="120" height="80" as="geometry" />
        </mxCell>
        <mxCell id="6lRkWIZP2LR_xqNIW5vM-84" value="regDatum" style="ellipse;whiteSpace=wrap;html=1;" parent="1" vertex="1">
          <mxGeometry x="930" width="120" height="80" as="geometry" />
        </mxCell>
        <mxCell id="6lRkWIZP2LR_xqNIW5vM-85" value="" style="endArrow=none;html=1;rounded=0;exitX=0.5;exitY=1;exitDx=0;exitDy=0;entryX=0.5;entryY=0;entryDx=0;entryDy=0;endFill=0;" parent="1" source="6lRkWIZP2LR_xqNIW5vM-84" target="d9idjgLGeZkNx8XCs1Kq-18" edge="1">
          <mxGeometry width="50" height="50" relative="1" as="geometry">
            <mxPoint x="665.8399999999999" y="520" as="sourcePoint" />
            <mxPoint x="699.8399999999999" y="160" as="targetPoint" />
          </mxGeometry>
        </mxCell>
        <mxCell id="fZHTzpQAPgce9dFF0bWE-1" style="edgeStyle=orthogonalEdgeStyle;rounded=0;orthogonalLoop=1;jettySize=auto;html=1;exitX=0.5;exitY=1;exitDx=0;exitDy=0;entryX=0.5;entryY=0;entryDx=0;entryDy=0;endArrow=none;endFill=0;" parent="1" source="fZHTzpQAPgce9dFF0bWE-5" target="fZHTzpQAPgce9dFF0bWE-6" edge="1">
          <mxGeometry relative="1" as="geometry" />
        </mxCell>
        <mxCell id="fZHTzpQAPgce9dFF0bWE-2" style="edgeStyle=orthogonalEdgeStyle;rounded=0;orthogonalLoop=1;jettySize=auto;html=1;exitX=0.5;exitY=1;exitDx=0;exitDy=0;entryX=0.5;entryY=0;entryDx=0;entryDy=0;endArrow=none;endFill=0;" parent="1" source="fZHTzpQAPgce9dFF0bWE-5" target="fZHTzpQAPgce9dFF0bWE-7" edge="1">
          <mxGeometry relative="1" as="geometry" />
        </mxCell>
        <mxCell id="fZHTzpQAPgce9dFF0bWE-3" style="edgeStyle=orthogonalEdgeStyle;rounded=0;orthogonalLoop=1;jettySize=auto;html=1;exitX=0.5;exitY=1;exitDx=0;exitDy=0;entryX=0.5;entryY=0;entryDx=0;entryDy=0;endArrow=none;endFill=0;" parent="1" source="fZHTzpQAPgce9dFF0bWE-5" target="fZHTzpQAPgce9dFF0bWE-8" edge="1">
          <mxGeometry relative="1" as="geometry" />
        </mxCell>
        <mxCell id="fZHTzpQAPgce9dFF0bWE-4" style="edgeStyle=orthogonalEdgeStyle;rounded=0;orthogonalLoop=1;jettySize=auto;html=1;exitX=0.5;exitY=1;exitDx=0;exitDy=0;entryX=0.5;entryY=0;entryDx=0;entryDy=0;endArrow=none;endFill=0;" parent="1" source="fZHTzpQAPgce9dFF0bWE-5" edge="1">
          <mxGeometry relative="1" as="geometry">
            <mxPoint x="1636" y="1010" as="targetPoint" />
          </mxGeometry>
        </mxCell>
        <mxCell id="fZHTzpQAPgce9dFF0bWE-5" value="Kaszt" style="rounded=0;whiteSpace=wrap;html=1;" parent="1" vertex="1">
          <mxGeometry x="1376" y="860" width="120" height="60" as="geometry" />
        </mxCell>
        <mxCell id="fZHTzpQAPgce9dFF0bWE-6" value="&lt;u&gt;id&lt;/u&gt;" style="ellipse;whiteSpace=wrap;html=1;" parent="1" vertex="1">
          <mxGeometry x="1185" y="1010" width="120" height="80" as="geometry" />
        </mxCell>
        <mxCell id="fZHTzpQAPgce9dFF0bWE-7" value="nev" style="ellipse;whiteSpace=wrap;html=1;" parent="1" vertex="1">
          <mxGeometry x="1316" y="1010" width="120" height="80" as="geometry" />
        </mxCell>
        <mxCell id="fZHTzpQAPgce9dFF0bWE-8" value="eleteroModosito" style="ellipse;whiteSpace=wrap;html=1;" parent="1" vertex="1">
          <mxGeometry x="1446" y="1010" width="120" height="80" as="geometry" />
        </mxCell>
        <mxCell id="fZHTzpQAPgce9dFF0bWE-9" value="sebzesModosito" style="ellipse;whiteSpace=wrap;html=1;" parent="1" vertex="1">
          <mxGeometry x="1575" y="1009" width="120" height="80" as="geometry" />
        </mxCell>
        <mxCell id="CvW5iFmw_22QN7r7Fk7P-2" value="kategoria" style="ellipse;whiteSpace=wrap;html=1;" parent="1" vertex="1">
          <mxGeometry x="810" y="480" width="120" height="80" as="geometry" />
        </mxCell>
        <mxCell id="CvW5iFmw_22QN7r7Fk7P-3" style="edgeStyle=orthogonalEdgeStyle;rounded=0;orthogonalLoop=1;jettySize=auto;html=1;exitX=0.25;exitY=0;exitDx=0;exitDy=0;entryX=1;entryY=0.5;entryDx=0;entryDy=0;endArrow=none;endFill=0;" parent="1" source="d9idjgLGeZkNx8XCs1Kq-83" target="CvW5iFmw_22QN7r7Fk7P-2" edge="1">
          <mxGeometry relative="1" as="geometry">
            <mxPoint x="944.75" y="800" as="sourcePoint" />
            <mxPoint x="974.75" y="460" as="targetPoint" />
            <Array as="points">
              <mxPoint x="960" y="520" />
            </Array>
          </mxGeometry>
        </mxCell>
        <mxCell id="mrpZGqUkOIdRUqxAna4f-53" style="edgeStyle=orthogonalEdgeStyle;rounded=0;orthogonalLoop=1;jettySize=auto;html=1;exitX=0.5;exitY=1;exitDx=0;exitDy=0;entryX=0.5;entryY=0;entryDx=0;entryDy=0;endArrow=none;endFill=0;" edge="1" parent="1" source="ASd1OI1z6YzMuxutC71I-1" target="ASd1OI1z6YzMuxutC71I-2">
          <mxGeometry relative="1" as="geometry" />
        </mxCell>
        <mxCell id="ASd1OI1z6YzMuxutC71I-1" value="FelszKatMegn" style="rounded=0;whiteSpace=wrap;html=1;" parent="1" vertex="1">
          <mxGeometry x="1080" y="1110" width="120" height="60" as="geometry" />
        </mxCell>
        <mxCell id="ASd1OI1z6YzMuxutC71I-2" value="katId" style="ellipse;whiteSpace=wrap;html=1;fontStyle=4" parent="1" vertex="1">
          <mxGeometry x="1010" y="1211.5" width="120" height="80" as="geometry" />
        </mxCell>
        <mxCell id="mrpZGqUkOIdRUqxAna4f-54" style="edgeStyle=orthogonalEdgeStyle;rounded=0;orthogonalLoop=1;jettySize=auto;html=1;exitX=0.5;exitY=0;exitDx=0;exitDy=0;entryX=0.5;entryY=1;entryDx=0;entryDy=0;endArrow=none;endFill=0;" edge="1" parent="1" source="ASd1OI1z6YzMuxutC71I-4" target="ASd1OI1z6YzMuxutC71I-1">
          <mxGeometry relative="1" as="geometry" />
        </mxCell>
        <mxCell id="ASd1OI1z6YzMuxutC71I-4" value="katNev" style="ellipse;whiteSpace=wrap;html=1;" parent="1" vertex="1">
          <mxGeometry x="1150" y="1211.5" width="120" height="80" as="geometry" />
        </mxCell>
        <mxCell id="ASd1OI1z6YzMuxutC71I-6" value="" style="endArrow=classic;startArrow=classic;html=1;rounded=0;entryX=0.5;entryY=0;entryDx=0;entryDy=0;exitX=0.75;exitY=1;exitDx=0;exitDy=0;" parent="1" source="d9idjgLGeZkNx8XCs1Kq-83" target="ASd1OI1z6YzMuxutC71I-1" edge="1">
          <mxGeometry width="50" height="50" relative="1" as="geometry">
            <mxPoint x="1260" y="920" as="sourcePoint" />
            <mxPoint x="1450" y="1240" as="targetPoint" />
            <Array as="points">
              <mxPoint x="1020" y="1040" />
              <mxPoint x="1140" y="1040" />
            </Array>
          </mxGeometry>
        </mxCell>
        <mxCell id="ASd1OI1z6YzMuxutC71I-7" value="SzornyFelszDobhat" style="rounded=0;whiteSpace=wrap;html=1;" parent="1" vertex="1">
          <mxGeometry x="740" y="1435.75" width="120" height="60" as="geometry" />
        </mxCell>
        <mxCell id="ASd1OI1z6YzMuxutC71I-8" value="szornyId" style="ellipse;whiteSpace=wrap;html=1;fontStyle=4" parent="1" vertex="1">
          <mxGeometry x="670" y="1575.75" width="120" height="80" as="geometry" />
        </mxCell>
        <mxCell id="ASd1OI1z6YzMuxutC71I-9" value="" style="endArrow=none;html=1;rounded=0;entryX=0.5;entryY=1;entryDx=0;entryDy=0;exitX=0.5;exitY=0;exitDx=0;exitDy=0;" parent="1" source="ASd1OI1z6YzMuxutC71I-8" target="ASd1OI1z6YzMuxutC71I-7" edge="1">
          <mxGeometry width="50" height="50" relative="1" as="geometry">
            <mxPoint x="500" y="1652.7499999999998" as="sourcePoint" />
            <mxPoint x="584" y="1582.75" as="targetPoint" />
            <Array as="points">
              <mxPoint x="730" y="1540" />
              <mxPoint x="800" y="1540" />
            </Array>
          </mxGeometry>
        </mxCell>
        <mxCell id="ASd1OI1z6YzMuxutC71I-10" value="felszId" style="ellipse;whiteSpace=wrap;html=1;fontStyle=4" parent="1" vertex="1">
          <mxGeometry x="810" y="1575.75" width="120" height="80" as="geometry" />
        </mxCell>
        <mxCell id="ASd1OI1z6YzMuxutC71I-11" value="" style="endArrow=none;html=1;rounded=0;exitX=0.5;exitY=0;exitDx=0;exitDy=0;entryX=0.5;entryY=1;entryDx=0;entryDy=0;" parent="1" source="ASd1OI1z6YzMuxutC71I-10" target="ASd1OI1z6YzMuxutC71I-7" edge="1">
          <mxGeometry width="50" height="50" relative="1" as="geometry">
            <mxPoint x="606" y="1872.75" as="sourcePoint" />
            <mxPoint x="700" y="1522.75" as="targetPoint" />
            <Array as="points">
              <mxPoint x="870" y="1540" />
              <mxPoint x="800" y="1540" />
            </Array>
          </mxGeometry>
        </mxCell>
        <mxCell id="ASd1OI1z6YzMuxutC71I-15" value="" style="endArrow=none;html=1;rounded=0;entryX=1;entryY=0.5;entryDx=0;entryDy=0;exitX=0;exitY=0.5;exitDx=0;exitDy=0;" parent="1" source="ASd1OI1z6YzMuxutC71I-7" target="d9idjgLGeZkNx8XCs1Kq-98" edge="1">
          <mxGeometry width="50" height="50" relative="1" as="geometry">
            <mxPoint x="680" y="1550" as="sourcePoint" />
            <mxPoint x="730" y="1500" as="targetPoint" />
          </mxGeometry>
        </mxCell>
        <mxCell id="ASd1OI1z6YzMuxutC71I-16" value="" style="endArrow=none;html=1;rounded=0;exitX=0.5;exitY=0;exitDx=0;exitDy=0;entryX=0.5;entryY=1;entryDx=0;entryDy=0;" parent="1" source="ASd1OI1z6YzMuxutC71I-7" target="d9idjgLGeZkNx8XCs1Kq-83" edge="1">
          <mxGeometry width="50" height="50" relative="1" as="geometry">
            <mxPoint x="-450" y="1290" as="sourcePoint" />
            <mxPoint x="960" y="960" as="targetPoint" />
            <Array as="points">
              <mxPoint x="800" y="1320" />
              <mxPoint x="990" y="1320" />
            </Array>
          </mxGeometry>
        </mxCell>
        <mxCell id="mrpZGqUkOIdRUqxAna4f-44" style="edgeStyle=orthogonalEdgeStyle;rounded=0;orthogonalLoop=1;jettySize=auto;html=1;exitX=0.5;exitY=0;exitDx=0;exitDy=0;entryX=0.5;entryY=1;entryDx=0;entryDy=0;endArrow=none;endFill=0;" edge="1" parent="1" source="kYaAEinNn-W8MI99jN2c-1" target="tEglWy51DRQlFk6ylOx4-1">
          <mxGeometry relative="1" as="geometry" />
        </mxCell>
        <mxCell id="kYaAEinNn-W8MI99jN2c-1" value="helyszinId" style="ellipse;whiteSpace=wrap;html=1;" parent="1" vertex="1">
          <mxGeometry x="525" y="1100" width="120" height="80" as="geometry" />
        </mxCell>
        <mxCell id="mrpZGqUkOIdRUqxAna4f-51" style="edgeStyle=orthogonalEdgeStyle;rounded=0;orthogonalLoop=1;jettySize=auto;html=1;exitX=0.5;exitY=1;exitDx=0;exitDy=0;entryX=0.5;entryY=0;entryDx=0;entryDy=0;endArrow=none;endFill=0;" edge="1" parent="1" source="kYaAEinNn-W8MI99jN2c-4" target="kYaAEinNn-W8MI99jN2c-5">
          <mxGeometry relative="1" as="geometry">
            <mxPoint x="790" y="1250" as="targetPoint" />
          </mxGeometry>
        </mxCell>
        <mxCell id="kYaAEinNn-W8MI99jN2c-4" value="BoltFelszereles" style="rounded=0;whiteSpace=wrap;html=1;" parent="1" vertex="1">
          <mxGeometry x="730" y="970" width="120" height="60" as="geometry" />
        </mxCell>
        <mxCell id="kYaAEinNn-W8MI99jN2c-5" value="&lt;u&gt;boltId&lt;/u&gt;" style="ellipse;whiteSpace=wrap;html=1;" parent="1" vertex="1">
          <mxGeometry x="660" y="1100" width="120" height="80" as="geometry" />
        </mxCell>
        <mxCell id="mrpZGqUkOIdRUqxAna4f-52" style="edgeStyle=orthogonalEdgeStyle;rounded=0;orthogonalLoop=1;jettySize=auto;html=1;exitX=0.5;exitY=0;exitDx=0;exitDy=0;entryX=0.5;entryY=1;entryDx=0;entryDy=0;endArrow=none;endFill=0;" edge="1" parent="1" source="kYaAEinNn-W8MI99jN2c-6" target="kYaAEinNn-W8MI99jN2c-4">
          <mxGeometry relative="1" as="geometry" />
        </mxCell>
        <mxCell id="kYaAEinNn-W8MI99jN2c-6" value="felszerelesId" style="ellipse;whiteSpace=wrap;html=1;" parent="1" vertex="1">
          <mxGeometry x="800" y="1100" width="120" height="80" as="geometry" />
        </mxCell>
        <mxCell id="kYaAEinNn-W8MI99jN2c-9" value="" style="endArrow=none;html=1;rounded=0;exitX=1;exitY=0.5;exitDx=0;exitDy=0;entryX=0.25;entryY=1;entryDx=0;entryDy=0;" parent="1" source="kYaAEinNn-W8MI99jN2c-4" target="d9idjgLGeZkNx8XCs1Kq-83" edge="1">
          <mxGeometry width="50" height="50" relative="1" as="geometry">
            <mxPoint x="971" y="1520" as="sourcePoint" />
            <mxPoint x="940" y="1000" as="targetPoint" />
            <Array as="points">
              <mxPoint x="960" y="1000" />
            </Array>
          </mxGeometry>
        </mxCell>
        <mxCell id="kYaAEinNn-W8MI99jN2c-13" value="" style="endArrow=none;html=1;rounded=0;entryX=0;entryY=0.5;entryDx=0;entryDy=0;exitX=1;exitY=0.5;exitDx=0;exitDy=0;" parent="1" source="tEglWy51DRQlFk6ylOx4-1" target="kYaAEinNn-W8MI99jN2c-4" edge="1">
          <mxGeometry width="50" height="50" relative="1" as="geometry">
            <mxPoint x="1011" y="1560" as="sourcePoint" />
            <mxPoint x="1051" y="1518" as="targetPoint" />
          </mxGeometry>
        </mxCell>
        <mxCell id="mrpZGqUkOIdRUqxAna4f-46" style="edgeStyle=orthogonalEdgeStyle;rounded=0;orthogonalLoop=1;jettySize=auto;html=1;entryX=1;entryY=0.75;entryDx=0;entryDy=0;endArrow=none;endFill=0;exitX=0.5;exitY=0;exitDx=0;exitDy=0;" edge="1" parent="1" source="kYaAEinNn-W8MI99jN2c-14" target="d9idjgLGeZkNx8XCs1Kq-29">
          <mxGeometry relative="1" as="geometry">
            <mxPoint x="430" y="750" as="sourcePoint" />
          </mxGeometry>
        </mxCell>
        <mxCell id="kYaAEinNn-W8MI99jN2c-14" value="KarakterFelszereles" style="rounded=0;whiteSpace=wrap;html=1;" parent="1" vertex="1">
          <mxGeometry x="400" y="861" width="120" height="60" as="geometry" />
        </mxCell>
        <mxCell id="kYaAEinNn-W8MI99jN2c-16" value="" style="endArrow=none;html=1;rounded=0;exitX=0.5;exitY=1;exitDx=0;exitDy=0;entryX=0.5;entryY=0;entryDx=0;entryDy=0;" parent="1" source="kYaAEinNn-W8MI99jN2c-14" target="tEglWy51DRQlFk6ylOx4-1" edge="1">
          <mxGeometry width="50" height="50" relative="1" as="geometry">
            <mxPoint x="484" y="950" as="sourcePoint" />
            <mxPoint x="450" y="907" as="targetPoint" />
          </mxGeometry>
        </mxCell>
        <mxCell id="mrpZGqUkOIdRUqxAna4f-50" style="edgeStyle=orthogonalEdgeStyle;rounded=0;orthogonalLoop=1;jettySize=auto;html=1;exitX=1;exitY=0.5;exitDx=0;exitDy=0;entryX=0;entryY=0.5;entryDx=0;entryDy=0;endArrow=none;endFill=0;" edge="1" parent="1" source="kYaAEinNn-W8MI99jN2c-17" target="kYaAEinNn-W8MI99jN2c-14">
          <mxGeometry relative="1" as="geometry" />
        </mxCell>
        <mxCell id="kYaAEinNn-W8MI99jN2c-17" value="&lt;u&gt;karakterId&lt;/u&gt;" style="ellipse;whiteSpace=wrap;html=1;" parent="1" vertex="1">
          <mxGeometry x="230" y="761" width="120" height="80" as="geometry" />
        </mxCell>
        <mxCell id="mrpZGqUkOIdRUqxAna4f-47" style="edgeStyle=orthogonalEdgeStyle;rounded=0;orthogonalLoop=1;jettySize=auto;html=1;exitX=1;exitY=0.5;exitDx=0;exitDy=0;entryX=0;entryY=0.5;entryDx=0;entryDy=0;endArrow=none;endFill=0;" edge="1" parent="1" source="kYaAEinNn-W8MI99jN2c-19" target="kYaAEinNn-W8MI99jN2c-14">
          <mxGeometry relative="1" as="geometry" />
        </mxCell>
        <mxCell id="kYaAEinNn-W8MI99jN2c-19" value="&lt;u&gt;felszerelesId&lt;/u&gt;" style="ellipse;whiteSpace=wrap;html=1;" parent="1" vertex="1">
          <mxGeometry x="230" y="851" width="120" height="80" as="geometry" />
        </mxCell>
        <mxCell id="mrpZGqUkOIdRUqxAna4f-49" style="edgeStyle=orthogonalEdgeStyle;rounded=0;orthogonalLoop=1;jettySize=auto;html=1;exitX=1;exitY=0.5;exitDx=0;exitDy=0;entryX=0;entryY=0.5;entryDx=0;entryDy=0;endArrow=none;endFill=0;" edge="1" parent="1" source="kYaAEinNn-W8MI99jN2c-21" target="kYaAEinNn-W8MI99jN2c-14">
          <mxGeometry relative="1" as="geometry" />
        </mxCell>
        <mxCell id="kYaAEinNn-W8MI99jN2c-21" value="felveve" style="ellipse;whiteSpace=wrap;html=1;" parent="1" vertex="1">
          <mxGeometry x="230" y="939" width="120" height="80" as="geometry" />
        </mxCell>
        <mxCell id="jSIrwF9xCyIqkyRAw18I-1" value="" style="endArrow=none;html=1;rounded=0;entryX=0;entryY=0.5;entryDx=0;entryDy=0;exitX=1;exitY=0.5;exitDx=0;exitDy=0;" parent="1" source="kYaAEinNn-W8MI99jN2c-14" target="d9idjgLGeZkNx8XCs1Kq-83" edge="1">
          <mxGeometry width="50" height="50" relative="1" as="geometry">
            <mxPoint x="550" y="840" as="sourcePoint" />
            <mxPoint x="720" y="900" as="targetPoint" />
          </mxGeometry>
        </mxCell>
        <mxCell id="mrpZGqUkOIdRUqxAna4f-35" style="edgeStyle=orthogonalEdgeStyle;rounded=0;orthogonalLoop=1;jettySize=auto;html=1;exitX=0.5;exitY=1;exitDx=0;exitDy=0;entryX=0.5;entryY=0;entryDx=0;entryDy=0;endArrow=none;endFill=0;" edge="1" parent="1" source="mfxeeghmOqWQWGewJI-T-1" target="d9idjgLGeZkNx8XCs1Kq-3">
          <mxGeometry relative="1" as="geometry" />
        </mxCell>
        <mxCell id="mfxeeghmOqWQWGewJI-T-1" value="email" style="ellipse;whiteSpace=wrap;html=1;" parent="1" vertex="1">
          <mxGeometry x="286.8" width="120" height="80" as="geometry" />
        </mxCell>
        <mxCell id="mrpZGqUkOIdRUqxAna4f-21" style="edgeStyle=orthogonalEdgeStyle;rounded=0;orthogonalLoop=1;jettySize=auto;html=1;exitX=0.5;exitY=0;exitDx=0;exitDy=0;entryX=0.608;entryY=1.025;entryDx=0;entryDy=0;entryPerimeter=0;endArrow=none;endFill=0;" edge="1" parent="1" source="1mJTOALeoTQ1OMjtF4g4-1" target="d9idjgLGeZkNx8XCs1Kq-29">
          <mxGeometry relative="1" as="geometry" />
        </mxCell>
      </root>
    </mxGraphModel>
  </diagram>
</mxfile>
